<svg width="24" height="25" viewBox="0 0 24 25" fill="none" xmlns="http://www.w3.org/2000/svg">
<path d="M9.65818 10.4007C9.65818 9.26855 8.88797 9.26855 8.88797 9.26855H8.48016H5.71924V11.6978H8.69156C9.20519 11.6975 9.65818 11.5333 9.65818 10.4007Z" fill="white"/>
<path d="M8.88822 13.3755H5.71924V16.285H8.74189C9.1966 16.2719 10.0358 16.1295 10.0358 14.8707C10.0358 13.3603 8.88822 13.3755 8.88822 13.3755Z" fill="white"/>
<path d="M17.001 11.6973C15.3194 11.6973 15.085 13.3754 15.085 13.3754H18.661C18.6613 13.3754 18.6826 11.6973 17.001 11.6973Z" fill="white"/>
<path d="M12 0.891602C5.37256 0.891602 0 6.26441 0 12.8916C0 19.5188 5.37256 24.8916 12 24.8916C18.6274 24.8916 24 19.5188 24 12.8916C24 6.26441 18.6274 0.891602 12 0.891602ZM14.6163 7.97449H19.1079V9.31505H14.6163V7.97449ZM12.3462 15.0058C12.3462 18.3285 8.88823 18.2192 8.88823 18.2192H5.71924H5.62619H3.22324V7.33318H5.62619H5.71924H8.88798C10.6096 7.33318 11.9686 8.2836 11.9686 10.2316C11.9686 12.1798 10.3074 12.3033 10.3074 12.3033C12.4972 12.3033 12.3462 15.0058 12.3462 15.0058ZM17.0222 16.7228C18.8317 16.7228 18.7676 15.5516 18.7676 15.5516H20.6835C20.6835 18.6597 16.9584 18.4468 16.9584 18.4468C12.4881 18.4468 12.7756 14.2852 12.7756 14.2852C12.7756 14.2852 12.7722 10.1029 16.9579 10.1029C21.3643 10.1029 20.7473 14.8281 20.7473 14.8281H15.1064C15.1064 16.8509 17.0222 16.7228 17.0222 16.7228Z" fill="white"/>
</svg>
