<svg width="24" height="25" viewBox="0 0 24 25" fill="none" xmlns="http://www.w3.org/2000/svg">
<path fill-rule="evenodd" clip-rule="evenodd" d="M12 24.8916C18.6274 24.8916 24 19.519 24 12.8916C24 6.26418 18.6274 0.891602 12 0.891602C5.37258 0.891602 0 6.26418 0 12.8916C0 19.519 5.37258 24.8916 12 24.8916ZM13.3472 5.99013C14.81 6.23292 16.1594 6.91499 17.2085 7.94186L15.1774 9.92992C14.5496 9.3155 13.7422 8.90738 12.867 8.76211C11.9917 8.61684 11.092 8.7416 10.2924 9.11913C9.49283 9.49665 8.83301 10.1082 8.40435 10.8692C7.97569 11.6301 7.79942 12.5026 7.89996 13.366C8.00051 14.2293 8.37289 15.0407 8.96551 15.6876C9.55813 16.3346 10.3416 16.7851 11.2075 16.9768C12.0734 17.1685 12.9787 17.0919 13.7981 16.7576C14.6175 16.4232 15.3104 15.8477 15.7807 15.1107L18 16.7576C17.2139 17.9892 16.2728 18.7938 14.9034 19.3526C13.534 19.9114 12.0209 20.0395 10.5738 19.7191C9.12672 19.3987 7.81725 18.6458 6.82682 17.5645C5.8364 16.4833 5.21406 15.1273 5.04602 13.6844C4.87799 12.2415 5.17258 10.7832 5.88898 9.51156C6.60538 8.23987 7.70812 7.21774 9.04443 6.5868C10.3807 5.95586 11.8844 5.74734 13.3472 5.99013ZM12.1516 14.8916C13.28 14.8916 14.1949 13.9962 14.1949 12.8916C14.1949 11.787 13.28 10.8916 12.1516 10.8916C11.0231 10.8916 10.1083 11.787 10.1083 12.8916C10.1083 13.9962 11.0231 14.8916 12.1516 14.8916Z" fill="white"/>
</svg>
