<svg width="24" height="25" viewBox="0 0 24 25" fill="none" xmlns="http://www.w3.org/2000/svg">
<path d="M11.5218 10.4118C10.3199 8.28603 9.03536 6.49346 8.77658 6.1377C6.71025 7.12372 5.16271 9.02604 4.6665 11.3153H4.73992C5.43131 11.3153 8.29609 11.2598 11.5218 10.4118Z" fill="white"/>
<path d="M16.9436 7.27136C15.6222 6.11297 13.8923 5.4093 12 5.4093C11.4181 5.4093 10.8519 5.47633 10.3076 5.60302C10.6126 6.01501 11.8964 7.78819 13.068 9.93186C15.6004 8.97431 16.7347 7.55715 16.9436 7.27136Z" fill="white"/>
<path d="M14.17 12.1828C14.221 12.3026 14.2706 12.4222 14.3195 12.541C14.9001 12.4696 15.4796 12.4418 16.03 12.4418C17.7367 12.4418 19.1649 12.709 19.502 12.777C19.4733 11.0502 18.857 9.46386 17.844 8.2085C17.582 8.54806 16.3146 10.0494 13.6885 11.1312C13.8572 11.4774 14.019 11.829 14.17 12.1828Z" fill="white"/>
<path d="M12.5139 12.9267C12.5964 12.9002 12.6799 12.8759 12.7634 12.8514C12.5846 12.4504 12.3922 12.049 12.1898 11.6534C8.85931 12.6422 5.62673 12.7195 4.69595 12.7195C4.61002 12.7195 4.54446 12.719 4.49929 12.718C4.49781 12.7799 4.49609 12.8418 4.49609 12.9032C4.49634 14.8065 5.21057 16.5453 6.38491 17.8684C6.70188 17.3447 8.7638 14.1379 12.5139 12.9267Z" fill="white"/>
<path d="M12 0.891602C5.37256 0.891602 0 6.26441 0 12.8916C0 19.5188 5.37256 24.8916 12 24.8916C18.6274 24.8916 24 19.5188 24 12.8916C24 6.26441 18.6274 0.891602 12 0.891602ZM12 21.7621C7.10228 21.7621 3.11791 17.7829 3.11767 12.8916C3.11816 8.00027 7.10228 4.02155 12 4.02105C16.8977 4.02155 20.8818 8.00027 20.8821 12.8916C20.8818 17.7829 16.8977 21.7621 12 21.7621Z" fill="white"/>
<path d="M14.8115 13.8137C15.7448 16.3878 16.1491 18.4988 16.2493 19.0758C17.8924 17.9445 19.0633 16.1759 19.4018 14.1307C19.117 14.0438 17.8902 13.7006 16.3222 13.7006C15.8447 13.7006 15.3352 13.7332 14.8115 13.8137Z" fill="white"/>
<path d="M13.3036 14.1851C9.19308 15.6155 7.63744 18.4169 7.42334 18.8375C8.69123 19.8145 10.2783 20.3971 12.0004 20.3971C13.0274 20.3971 14.0068 20.1899 14.8991 19.8152C14.7788 19.1172 14.342 16.8657 13.312 14.1821C13.309 14.1831 13.3063 14.1841 13.3036 14.1851Z" fill="white"/>
</svg>
