<svg width="24" height="25" viewBox="0 0 24 25" fill="none" xmlns="http://www.w3.org/2000/svg">
<path fill-rule="evenodd" clip-rule="evenodd" d="M24 12.8916C24 19.519 18.6274 24.8916 12 24.8916C5.37258 24.8916 0 19.519 0 12.8916C0 6.26418 5.37258 0.891602 12 0.891602C18.6274 0.891602 24 6.26418 24 12.8916ZM12 10.8916C10.8972 10.8916 10 11.7888 10 12.8916C10 13.9944 10.8972 14.8916 12 14.8916C13.1028 14.8916 14 13.9944 14 12.8916C14 11.7888 13.1029 10.8916 12 10.8916ZM14.1967 5.8916C15.4748 5.8916 16.6796 6.39255 17.5893 7.30226C18.4989 8.21187 19 9.41681 19 10.6949V15.0882C19 16.3664 18.4989 17.5713 17.5893 18.4809C16.6797 19.3907 15.4748 19.8916 14.1967 19.8916H9.80331C8.52521 19.8916 7.32027 19.3907 6.41066 18.4809C5.50095 17.5713 5 16.3664 5 15.0882V10.6949C5 9.41681 5.50095 8.21187 6.41066 7.30226C7.32027 6.39255 8.52521 5.8916 9.80331 5.8916H14.1967ZM8.29492 12.8916C8.29492 14.9346 9.95702 16.5967 12 16.5967C14.043 16.5967 15.7051 14.9346 15.7051 12.8916C15.7051 10.8486 14.043 9.18652 12 9.18652C9.95702 9.18652 8.29492 10.8486 8.29492 12.8916ZM15.8146 9.4872C15.9224 9.4872 16.0283 9.44341 16.1046 9.36714C16.1809 9.29077 16.2247 9.18492 16.2247 9.07704C16.2247 8.96906 16.1809 8.8632 16.1046 8.78694C16.0283 8.71057 15.9224 8.66689 15.8146 8.66689C15.7065 8.66689 15.6009 8.71057 15.5247 8.78694C15.4481 8.8632 15.4044 8.96906 15.4044 9.07704C15.4044 9.18503 15.4481 9.29077 15.5247 9.36714C15.6009 9.44341 15.7066 9.4872 15.8146 9.4872Z" fill="white"/>
</svg>
