<svg width="24" height="25" viewBox="0 0 24 25" fill="none" xmlns="http://www.w3.org/2000/svg">
<path d="M12 0.891602C5.3736 0.891602 0 6.2652 0 12.8916C0 19.518 5.3736 24.8916 12 24.8916C18.6264 24.8916 24 19.518 24 12.8916C24 6.2652 18.6264 0.891602 12 0.891602ZM8.51294 19.0322H5.59039V10.2397H8.51294V19.0322ZM7.05176 9.03906H7.03271C6.052 9.03906 5.41772 8.36395 5.41772 7.5202C5.41772 6.65741 6.07141 6.00098 7.07117 6.00098C8.07092 6.00098 8.68616 6.65741 8.7052 7.5202C8.7052 8.36395 8.07092 9.03906 7.05176 9.03906ZM19.051 19.0322H16.1288V14.3284C16.1288 13.1463 15.7057 12.3401 14.6483 12.3401C13.8409 12.3401 13.3601 12.8839 13.1488 13.4089C13.0715 13.5967 13.0527 13.8593 13.0527 14.1221V19.0322H10.1303C10.1303 19.0322 10.1686 11.0646 10.1303 10.2397H13.0527V11.4846C13.441 10.8855 14.1359 10.0333 15.6865 10.0333C17.6093 10.0333 19.051 11.29 19.051 13.9906V19.0322Z" fill="white"/>
</svg>
