<svg width="14" height="14" viewBox="0 0 14 14" fill="none" xmlns="http://www.w3.org/2000/svg">
<path fill-rule="evenodd" clip-rule="evenodd" d="M14 7C14 10.866 10.866 14 7 14C3.13401 14 0 10.866 0 7C0 3.13401 3.13401 0 7 0C10.866 0 14 3.13401 14 7ZM9.41401 6.99973C9.41401 8.33283 8.33332 9.41352 7.00022 9.41352C5.66712 9.41352 4.58643 8.33283 4.58643 6.99973C4.58643 5.66663 5.66712 4.58594 7.00022 4.58594C8.33332 4.58594 9.41401 5.66663 9.41401 6.99973Z" fill="#4EBA85"/>
</svg>
<svg width="14" height="14" viewBox="0 0 14 14" fill="none" xmlns="http://www.w3.org/2000/svg">
  <circle cx="7" cy="7" r="7" fill="#4eba85"/>
  <circle cx="7" cy="7" r="2.41" fill="#C4C4C4"/>
</svg>