<svg width="24" height="24" viewBox="0 0 24 24" fill="none" xmlns="http://www.w3.org/2000/svg">
    <path d="M21.633 6.647a6.093 6.093 0 0 0-1.334-1.94A6.219 6.219 0 0 0 15.93 2.93 6.26 6.26 0 0 0 12 4.315 6.26 6.26 0 0 0 8.07 2.93 6.219 6.219 0 0 0 3.7 4.706a6.057 6.057 0 0 0-1.825 4.33c0 .78.16 1.593.476 2.42.265.692.644 1.409 1.13 2.133.768 1.146 1.825 2.341 3.138 3.553a35.071 35.071 0 0 0 4.42 3.453l.556.356a.753.753 0 0 0 .808 0l.556-.357a35.517 35.517 0 0 0 4.42-3.452c1.312-1.211 2.37-2.407 3.138-3.553.485-.724.867-1.441 1.13-2.133.316-.827.476-1.64.476-2.42a5.968 5.968 0 0 0-.49-2.39z" fill="#F6C050"/>
    <path d="M21.633 6.647a6.093 6.093 0 0 0-1.334-1.94A6.219 6.219 0 0 0 15.93 2.93 6.26 6.26 0 0 0 12 4.315 6.26 6.26 0 0 0 8.07 2.93 6.219 6.219 0 0 0 3.7 4.706a6.057 6.057 0 0 0-1.825 4.33c0 .78.16 1.593.476 2.42a301867.116 301867.116 0 0 0 19.296 0c.316-.827.476-1.64.476-2.42a5.968 5.968 0 0 0-.49-2.39z" fill="#4386D1"/>
</svg>
