<svg width="42" height="41" viewBox="0 0 42 41" fill="none" xmlns="http://www.w3.org/2000/svg">
<path fill-rule="evenodd" clip-rule="evenodd" d="M0.500001 3.42537C0.500001 2.51691 0.860886 1.64565 1.50327 1.00327C2.14565 0.36089 3.0169 4.56649e-06 3.92536 4.56649e-06H38.0709C38.5211 -0.000730734 38.967 0.08734 39.3832 0.259174C39.7993 0.431009 40.1774 0.683232 40.496 1.0014C40.8145 1.31958 41.0671 1.69745 41.2394 2.11339C41.4117 2.52932 41.5002 2.97516 41.5 3.42537V37.5709C41.5005 38.0212 41.4122 38.4672 41.2402 38.8833C41.0681 39.2995 40.8157 39.6776 40.4974 39.9961C40.1791 40.3146 39.8011 40.5672 39.385 40.7394C38.969 40.9117 38.5231 41.0002 38.0728 41H3.92536C3.47538 41 3.02981 40.9113 2.6141 40.7391C2.1984 40.5668 1.82071 40.3144 1.50261 39.9961C1.18451 39.6778 0.932237 39.3 0.760206 38.8842C0.588175 38.4684 0.499756 38.0228 0.500001 37.5728V3.42537ZM16.7285 15.6322H22.2803V18.4202C23.0817 16.8175 25.1317 15.375 28.2123 15.375C34.1181 15.375 35.5177 18.5674 35.5177 24.4248V35.2749H29.541V25.7592C29.541 22.4233 28.7397 20.541 26.7046 20.541C23.8812 20.541 22.7071 22.5705 22.7071 25.7592V35.2749H16.7285V15.6322ZM6.47855 35.0196H12.4571V15.375H6.47855V35.0177V35.0196ZM13.3125 8.96782C13.3238 9.47971 13.2327 9.9887 13.0446 10.4649C12.8565 10.9411 12.5752 11.375 12.2171 11.741C11.8591 12.107 11.4315 12.3978 10.9596 12.5963C10.4876 12.7949 9.98076 12.8971 9.46875 12.8971C8.95674 12.8971 8.44988 12.7949 7.97793 12.5963C7.50597 12.3978 7.07843 12.107 6.72039 11.741C6.36235 11.375 6.08102 10.9411 5.89292 10.4649C5.70482 9.9887 5.61373 9.47971 5.625 8.96782C5.64713 7.96305 6.06181 7.00689 6.78024 6.3041C7.49867 5.60131 8.46374 5.20778 9.46875 5.20778C10.4738 5.20778 11.4388 5.60131 12.1573 6.3041C12.8757 7.00689 13.2904 7.96305 13.3125 8.96782Z" fill="#0A66C2"/>
</svg>
