<svg width="44" height="35" viewBox="0 0 44 35" fill="none" xmlns="http://www.w3.org/2000/svg">
<path d="M43.5 4.15164C41.9187 4.85321 40.22 5.32725 38.4342 5.54151C40.2768 4.43756 41.6554 2.70008 42.3126 0.653256C40.5814 1.68284 38.6867 2.40756 36.7108 2.7959C35.3821 1.37543 33.6222 0.433922 31.7043 0.117546C29.7864 -0.198829 27.8179 0.127629 26.1043 1.04624C24.3907 1.96484 23.0279 3.42421 22.2275 5.19775C21.4272 6.97129 21.234 8.95978 21.6781 10.8545C18.1702 10.6782 14.7386 9.76526 11.6059 8.17507C8.4732 6.58488 5.70947 4.35294 3.49405 1.62408C2.73655 2.93242 2.30098 4.44933 2.30098 6.06485C2.30013 7.51918 2.65783 8.95124 3.34232 10.234C4.02682 11.5167 5.01695 12.6104 6.22487 13.4181C4.82401 13.3735 3.45404 12.9945 2.22901 12.3126V12.4264C2.22887 14.4662 2.93356 16.4432 4.2235 18.0219C5.51345 19.6007 7.30919 20.684 9.30604 21.088C8.0065 21.4401 6.64404 21.492 5.32155 21.2397C5.88494 22.9948 6.98237 24.5295 8.46022 25.6291C9.93807 26.7287 11.7223 27.338 13.5632 27.3718C10.4382 29.8281 6.5788 31.1605 2.60588 31.1546C1.90211 31.1548 1.19895 31.1136 0.5 31.0314C4.53274 33.6275 9.22715 35.0053 14.0215 35C30.2512 35 39.1235 21.5412 39.1235 9.86851C39.1235 9.48928 39.114 9.10626 39.097 8.72703C40.8228 7.47742 42.3124 5.93002 43.4962 4.15733L43.5 4.15164V4.15164Z" fill="#00ACEE"/>
</svg>
