<svg width="92" height="46" viewBox="0 0 92 46" fill="none" xmlns="http://www.w3.org/2000/svg">
<mask id="path-1-inside-1_105_4542" fill="white">
<path d="M91.1935 0.575134C91.1813 6.48548 90.0024 12.3379 87.7241 17.7984C85.4458 23.2588 82.1127 28.2203 77.915 32.3996C73.7174 36.5788 68.7375 39.894 63.2597 42.1557C57.7818 44.4175 51.9133 45.5817 45.9892 45.5817C40.065 45.5817 34.2013 44.4175 28.7328 42.1557C23.2642 39.894 18.298 36.5788 14.1176 32.3996C9.93722 28.2203 6.62454 23.2588 4.36872 17.7984C2.1129 12.3379 0.958106 6.48547 0.970281 0.57513H21.347C21.3403 3.8158 21.9735 7.02473 23.2104 10.0187C24.4472 13.0127 26.2636 15.7331 28.5557 18.0246C30.8479 20.3161 33.5709 22.1338 36.5693 23.374C39.5677 24.6141 42.7828 25.2524 46.031 25.2524C49.2793 25.2524 52.497 24.6141 55.5005 23.374C58.5041 22.1338 61.2346 20.3161 63.5361 18.0246C65.8377 15.7331 67.6653 13.0127 68.9145 10.0187C70.1637 7.02474 70.8101 3.8158 70.8168 0.575134H91.1935Z"/>
</mask>
<path d="M91.1935 0.575134C91.1813 6.48548 90.0024 12.3379 87.7241 17.7984C85.4458 23.2588 82.1127 28.2203 77.915 32.3996C73.7174 36.5788 68.7375 39.894 63.2597 42.1557C57.7818 44.4175 51.9133 45.5817 45.9892 45.5817C40.065 45.5817 34.2013 44.4175 28.7328 42.1557C23.2642 39.894 18.298 36.5788 14.1176 32.3996C9.93722 28.2203 6.62454 23.2588 4.36872 17.7984C2.1129 12.3379 0.958106 6.48547 0.970281 0.57513H21.347C21.3403 3.8158 21.9735 7.02473 23.2104 10.0187C24.4472 13.0127 26.2636 15.7331 28.5557 18.0246C30.8479 20.3161 33.5709 22.1338 36.5693 23.374C39.5677 24.6141 42.7828 25.2524 46.031 25.2524C49.2793 25.2524 52.497 24.6141 55.5005 23.374C58.5041 22.1338 61.2346 20.3161 63.5361 18.0246C65.8377 15.7331 67.6653 13.0127 68.9145 10.0187C70.1637 7.02474 70.8101 3.8158 70.8168 0.575134H91.1935Z" stroke="#48C287" stroke-width="290" mask="url(#path-1-inside-1_105_4542)"/>
</svg>
