<svg width="219" height="378" viewBox="0 0 219 378" fill="none" xmlns="http://www.w3.org/2000/svg">
<path d="M0.864258 12.5833C0.864258 7.82965 4.20681 3.70319 8.90266 2.96463C33.34 -0.878967 58.3359 0.298645 82.3525 6.45886C109.01 13.2964 133.764 26.0938 154.746 43.8851C175.728 61.6763 192.391 83.9966 203.475 109.161C214.56 134.325 219.777 161.676 218.734 189.15C219.219 213.439 214.909 237.586 206.05 260.211C197.192 282.836 183.958 303.495 167.104 321.01C150.251 338.525 130.108 352.551 107.827 362.288C85.5458 372.024 61.5627 377.28 37.2476 377.756C27.704 377.774 18.1807 376.988 8.77882 375.408C4.13915 374.629 0.864258 370.529 0.864258 365.824L0.864258 12.5833Z" fill="#EE7373"/>
</svg>
