<svg width="48" height="47" viewBox="0 0 48 47" fill="none" xmlns="http://www.w3.org/2000/svg">
<path fill-rule="evenodd" clip-rule="evenodd" d="M43.3117 22.7493C41.852 28.6935 41.9476 34.4178 41.7726 40.4471C41.7386 41.6246 42.6622 42.6035 43.8344 42.639C45.0073 42.6744 45.9861 41.7452 46.0208 40.5677C46.1865 34.8505 46.0526 29.41 47.438 23.7637C47.7185 22.6217 47.0208 21.4655 45.8819 21.1888C44.7438 20.9051 43.5915 21.6073 43.3117 22.7493Z" fill="#1C2B32"/>
<path fill-rule="evenodd" clip-rule="evenodd" d="M30.91 11.2298C21.0072 20.295 11.6766 31.9564 5.15497 43.7313C4.58624 44.7598 4.95668 46.0579 5.98223 46.6254C7.00779 47.1928 8.30246 46.824 8.87119 45.7954C15.1775 34.4107 24.2014 23.1323 33.777 14.3721C34.6425 13.5776 34.7027 12.2299 33.9116 11.3645C33.1204 10.4991 31.7755 10.4353 30.91 11.2298Z" fill="#1C2B32"/>
<path fill-rule="evenodd" clip-rule="evenodd" d="M28.4015 1.32753C19.3443 -0.169153 10.0088 2.3844 1.77323 5.99489C0.698807 6.47015 0.208679 7.72563 0.678253 8.79671C1.14853 9.8749 2.40287 10.3644 3.4773 9.89621C10.9777 6.60492 19.4605 4.1648 27.7096 5.52671C28.8669 5.71823 29.9611 4.9309 30.1516 3.77469C30.3429 2.61848 29.5581 1.51905 28.4015 1.32753Z" fill="#1C2B32"/>
</svg>
