<svg width="25" height="27" viewBox="0 0 25 27" fill="none" xmlns="http://www.w3.org/2000/svg">
<g clip-path="url(#clip0_105_4533)">
<path fill-rule="evenodd" clip-rule="evenodd" d="M10.1369 5.96728C10.0673 5.55406 10.0148 5.14554 9.98092 4.73697C9.92985 4.12411 9.96143 3.50657 9.94332 2.89371C9.93543 2.63371 9.90432 1.95586 9.91685 1.85836C10.0306 1.00872 10.7163 0.878703 10.9169 0.855488C11.014 0.84156 12.0103 0.730181 12.2253 1.83518C12.489 3.18625 12.5735 4.54659 12.4802 5.87909C12.6979 7.01195 13.0703 8.14014 13.562 9.16157C15.5185 13.2241 19.2467 13.6187 23.286 13.5816C23.9072 13.5723 24.423 14.0598 24.4555 14.6773C24.488 15.2994 24.0256 15.838 23.4072 15.8937C21.1493 16.1119 17.1434 17.9227 15.7585 19.8077C15.4688 20.2023 15.3002 21.1541 15.0774 22.0873C14.7663 23.3827 14.3963 24.6641 13.9817 25.2027C13.9195 25.2862 13.1631 26.1405 12.9375 26.2659C12.3952 26.563 11.9611 26.3912 11.7146 26.2334C11.468 26.0755 11.189 25.7644 11.0776 25.2491C10.961 24.7105 11.0595 23.6055 11.0414 23.3687C10.9754 22.5098 10.8037 20.8244 10.4531 19.3759C10.2642 18.5959 10.0626 17.8762 9.72929 17.5187C8.49521 16.1955 6.522 16.3905 4.86032 16.6087C4.6695 16.6319 4.47868 16.6598 4.28832 16.683C3.61186 16.8827 2.89359 17.0312 2.13448 17.1194C0.988161 17.2541 0.799674 16.2001 0.789459 16.1305C0.768102 15.9773 0.688701 15.188 1.55274 14.8723C1.64699 14.8398 2.34249 14.6866 2.61039 14.6262C2.98367 14.5426 3.36113 14.4777 3.73999 14.4173C7.65345 13.2009 9.77896 9.78371 10.1369 5.96728ZM11.4801 10.1877C12.9575 13.2427 15.1995 14.7191 17.8571 15.3877H17.8566C16.1973 16.2559 14.6878 17.3423 13.8879 18.4334C13.5842 18.8466 13.3057 19.6777 13.0545 20.6109C12.9185 19.7427 12.7346 18.8187 12.4918 18.0294C12.2155 17.1287 11.8436 16.3812 11.4286 15.9355C10.6272 15.0766 9.62155 14.5984 8.54023 14.3616C9.83466 13.2148 10.8162 11.7848 11.4801 10.1877Z" fill="#1C2B32"/>
</g>
<defs>
<clipPath id="clip0_105_4533">
<rect width="24" height="26" fill="white" transform="translate(0.463135 0.843567)"/>
</clipPath>
</defs>
</svg>
