<svg width="119" height="82" viewBox="0 0 119 82" fill="none" xmlns="http://www.w3.org/2000/svg">
<path d="M43.1829 8.22955C44.8933 8.22955 46.2798 6.84283 46.2798 5.13223C46.2798 3.42163 44.8933 2.03491 43.1829 2.03491C41.4725 2.03491 40.0859 3.42163 40.0859 5.13223C40.0859 6.84283 41.4725 8.22955 43.1829 8.22955Z" fill="white"/>
<path fill-rule="evenodd" clip-rule="evenodd" d="M64.3286 17.783C65.3749 18.029 66.4468 18.1491 67.5215 18.1407C68.8886 18.1173 70.2353 17.8051 71.4734 17.2246C72.449 19.4841 72.8472 21.9508 72.6319 24.4026C72.4167 26.8543 71.5948 29.2139 70.2404 31.2687C68.8859 33.3236 67.0415 35.009 64.8734 36.1732C62.7053 37.3374 60.2815 37.9436 57.8207 37.9374C56.3266 37.9384 54.8411 37.7119 53.4152 37.2656V32.0307H45.9826C43.9537 29.374 42.8816 26.1097 42.9403 22.7672C42.999 19.4247 44.1849 16.2 46.3059 13.6162C48.4268 11.0324 51.3583 9.2409 54.625 8.53233C57.8916 7.82376 61.3018 8.23965 64.3024 9.71254L64.3286 17.783ZM57.8207 30.5038C59.289 30.5038 60.7244 30.0684 61.9452 29.2525C63.1661 28.4367 64.1176 27.2771 64.6795 25.9204C65.2414 24.5636 65.3884 23.0708 65.102 21.6305C64.8155 20.1902 64.1084 18.8672 63.0702 17.8288C62.0319 16.7905 60.7091 16.0833 59.269 15.7968C57.8289 15.5103 56.3363 15.6574 54.9797 16.2193C53.6232 16.7813 52.4637 17.733 51.648 18.954C50.8322 20.175 50.3968 21.6105 50.3968 23.079C50.3968 25.0482 51.179 26.9367 52.5712 28.3291C53.9635 29.7216 55.8518 30.5038 57.8207 30.5038Z" fill="white"/>
<path d="M51.47 33.9849H39.1172V39.8654H51.47V33.9849Z" fill="white"/>
<path d="M66.2998 16.0379C66.7822 16.1361 67.2731 16.1857 67.7654 16.1862C69.7537 16.1473 71.6453 15.3203 73.0243 13.8872C74.4033 12.454 75.1569 10.5319 75.1195 8.54328C75.1391 7.55571 74.9636 6.57398 74.603 5.65441C74.2424 4.73484 73.7038 3.89552 73.0182 3.18462C72.3325 2.47371 71.5132 1.9052 70.6073 1.51171C69.7014 1.11822 68.7267 0.907486 67.7392 0.891602C67.2552 0.892534 66.7726 0.945181 66.2998 1.04865V16.0379Z" fill="white"/>
<path d="M119 71.2749C119 71.7615 118.855 72.2372 118.585 72.6418C118.315 73.0464 117.931 73.3618 117.481 73.548C117.032 73.7342 116.537 73.7829 116.06 73.688C115.583 73.5931 115.144 73.3587 114.8 73.0146C114.456 72.6705 114.222 72.2321 114.127 71.7549C114.032 71.2776 114.081 70.7829 114.267 70.3333C114.453 69.8837 114.768 69.4995 115.173 69.2291C115.577 68.9588 116.053 68.8145 116.54 68.8145C116.863 68.8133 117.183 68.8762 117.482 68.9994C117.781 69.1226 118.053 69.3038 118.282 69.5325C118.51 69.7612 118.692 70.0329 118.815 70.332C118.938 70.631 119.001 70.9514 119 71.2749Z" fill="white"/>
<path d="M8.56671 56.5907C6.29468 56.5907 4.1157 57.4934 2.50913 59.1001C0.902561 60.7069 0 62.8862 0 65.1585L0 81.8665H3.42843V72.0598C4.91196 73.1641 6.71752 73.7497 8.56671 73.7263C9.6917 73.7263 10.8057 73.5047 11.845 73.0741C12.8844 72.6435 13.8288 72.0124 14.6243 71.2168C15.4198 70.4212 16.0508 69.4767 16.4813 68.4372C16.9118 67.3977 17.1334 66.2836 17.1334 65.1585C17.1334 64.0333 16.9118 62.9192 16.4813 61.8797C16.0508 60.8402 15.4198 59.8957 14.6243 59.1001C13.8288 58.3045 12.8844 57.6735 11.845 57.2429C10.8057 56.8123 9.6917 56.5907 8.56671 56.5907ZM12.1696 68.8055C11.7029 69.2877 11.1425 69.6696 10.523 69.9276C9.90347 70.1857 9.23777 70.3145 8.56671 70.3061C7.88988 70.3188 7.21768 70.1921 6.59187 69.9339C5.96607 69.6757 5.40003 69.2916 4.92891 68.8055C3.96895 67.845 3.42968 66.5427 3.42968 65.1847C3.42968 63.8267 3.96895 62.5243 4.92891 61.5639C5.39835 61.0778 5.96083 60.6913 6.58282 60.4273C7.20481 60.1633 7.87358 60.0272 8.54926 60.0272C9.22495 60.0272 9.89371 60.1633 10.5157 60.4273C11.1377 60.6913 11.7002 61.0778 12.1696 61.5639C12.6578 62.0321 13.0462 62.5942 13.3116 63.2165C13.577 63.8387 13.7138 64.5082 13.7138 65.1847C13.7138 65.8611 13.577 66.5306 13.3116 67.1529C13.0462 67.7751 12.6578 68.3372 12.1696 68.8055Z" fill="white"/>
<path d="M28.1253 73.7262C30.1282 73.7286 32.0691 73.0311 33.6125 71.7544L31.4316 69.1369C30.5105 69.9226 29.3357 70.3473 28.1253 70.3322C27.0572 70.3374 26.0139 70.0101 25.1401 69.3957C24.2664 68.7813 23.6053 67.9103 23.2487 66.9033H36.7007V65.1584C36.7374 64.0097 36.5428 62.8653 36.1285 61.7932C35.7143 60.7212 35.0888 59.7434 34.2893 58.9178C33.4898 58.0923 32.5325 57.4359 31.4744 56.9876C30.4162 56.5393 29.2788 56.3083 28.1296 56.3083C26.9805 56.3083 25.843 56.5393 24.7849 56.9876C23.7267 57.4359 22.7695 58.0923 21.97 58.9178C21.1704 59.7434 20.545 60.7212 20.1307 61.7932C19.7165 62.8653 19.5219 64.0097 19.5586 65.1584C19.5481 66.2864 19.7625 67.4053 20.1893 68.4495C20.6161 69.4937 21.2467 70.4424 22.0443 71.2401C22.8419 72.0378 23.7905 72.6685 24.8346 73.0953C25.8787 73.5222 26.9974 73.7367 28.1253 73.7262ZM28.1253 60.0194C29.1844 60.0339 30.2143 60.3694 31.0787 60.9816C31.9432 61.5938 32.6016 62.4539 32.967 63.4483H23.2487C23.6162 62.4484 24.2799 61.5844 25.1513 60.9718C26.0226 60.3591 27.0601 60.0268 28.1253 60.0194Z" fill="white"/>
<path d="M63.971 73.7263C65.6653 73.7263 67.3216 73.2238 68.7304 72.2823C70.1392 71.3409 71.2372 70.0028 71.8856 68.4372C72.534 66.8717 72.7037 65.149 72.3731 63.487C72.0426 61.825 71.2267 60.2984 70.0286 59.1001C68.8305 57.9019 67.3041 57.0859 65.6423 56.7553C63.9805 56.4247 62.258 56.5944 60.6927 57.2429C59.1273 57.8914 57.7894 58.9895 56.8481 60.3985C55.9067 61.8074 55.4043 63.4639 55.4043 65.1585C55.4043 67.4308 56.3069 69.6101 57.9134 71.2168C59.52 72.8236 61.699 73.7263 63.971 73.7263ZM60.3332 61.5115C61.1716 60.6733 62.2749 60.152 63.4547 60.0365C64.6346 59.921 65.818 60.2185 66.803 60.8782C67.788 61.538 68.5136 62.5191 68.8561 63.6542C69.1985 64.7893 69.1366 66.0081 68.6808 67.1026C68.225 68.1971 67.4037 69.0996 66.3568 69.656C65.31 70.2124 64.1026 70.3884 62.9405 70.1539C61.7784 69.9193 60.7337 69.2888 59.9846 68.3698C59.2355 67.4509 58.8284 66.3005 58.8327 65.1149C58.8323 64.4513 58.9648 63.7945 59.2226 63.183C59.4803 62.5716 59.8579 62.0181 60.3332 61.5551V61.5115Z" fill="white"/>
<path d="M88.406 58.301C86.862 57.1392 84.971 56.5329 83.0394 56.5804C81.1079 56.628 79.2489 57.3265 77.7639 58.5627C76.279 59.799 75.2549 61.5007 74.8579 63.3918C74.4608 65.283 74.7139 67.2528 75.5762 68.9821C76.4386 70.7114 77.8595 72.0987 79.6089 72.9193C81.3582 73.7398 83.3333 73.9455 85.2141 73.503C87.0949 73.0604 88.7712 71.9956 89.9712 70.4811C91.1712 68.9666 91.8247 67.0911 91.8257 65.1587V48.4507H88.406V58.301ZM86.8619 68.7708C86.0281 69.5706 84.9438 70.0579 83.7923 70.1506C82.6408 70.2433 81.4925 69.9357 80.5416 69.2796C79.5906 68.6235 78.8952 67.6593 78.5729 66.5498C78.2506 65.4402 78.3211 64.2534 78.7724 63.1899C79.2238 62.1263 80.0285 61.2512 81.0504 60.7123C82.0723 60.1734 83.2489 60.0038 84.3813 60.2322C85.5138 60.4606 86.5328 61.0729 87.266 61.9657C87.9993 62.8586 88.402 63.9772 88.406 65.1326C88.4172 65.8171 88.2856 66.4965 88.0198 67.1274C87.7539 67.7583 87.3596 68.3269 86.8619 68.797V68.7708Z" fill="white"/>
<path d="M102.548 73.7268C104.551 73.7292 106.491 73.0317 108.035 71.755L105.845 69.1375C104.928 69.9233 103.755 70.3482 102.548 70.3328C101.479 70.3372 100.435 70.0098 99.5595 69.3956C98.6845 68.7815 98.0216 67.9109 97.6623 66.904H111.114V65.159C111.121 63.4546 110.622 61.7866 109.679 60.3665C108.737 58.9465 107.394 57.8384 105.82 57.183C104.247 56.5276 102.515 56.3543 100.843 56.6851C99.1714 57.0159 97.6355 57.836 96.4305 59.0412C95.2254 60.2464 94.4055 61.7824 94.0747 63.4544C93.7439 65.1264 93.9172 66.859 94.5726 68.4324C95.2279 70.0057 96.3358 71.3489 97.7557 72.2915C99.1755 73.2341 100.843 73.7337 102.548 73.7268ZM102.548 60.0201C103.607 60.0345 104.637 60.37 105.501 60.9822C106.365 61.5944 107.024 62.4546 107.389 63.4489H97.7059C98.0712 62.4546 98.7296 61.5944 99.5941 60.9822C100.459 60.37 101.488 60.0345 102.548 60.0201Z" fill="white"/>
<path d="M51.0424 69.1198L53.2495 71.7373C52.0007 72.798 50.4745 73.4792 48.8511 73.7003C47.2277 73.9215 45.5749 73.6734 44.088 72.9853C42.601 72.2972 41.342 71.1979 40.4596 69.8173C39.5773 68.4366 39.1084 66.8322 39.1084 65.1936C39.1084 63.555 39.5773 61.9507 40.4596 60.57C41.342 59.1893 42.601 58.09 44.088 57.402C45.5749 56.7139 47.2277 56.4658 48.8511 56.687C50.4745 56.9081 52.0007 57.5893 53.2495 58.65L51.0337 61.2675C50.4013 60.7212 49.6459 60.3366 48.8322 60.1466C48.0186 59.9566 47.1709 59.9669 46.3621 60.1766C45.5533 60.3863 44.8074 60.7891 44.1885 61.3505C43.5696 61.9119 43.0961 62.6151 42.8087 63.3997C42.5213 64.1844 42.4285 65.027 42.5383 65.8554C42.6482 66.6839 42.9574 67.4732 43.4393 68.1558C43.9213 68.8385 44.5617 69.3939 45.3055 69.7746C46.0493 70.1552 46.8744 70.3497 47.7099 70.3413C48.9312 70.3468 50.1139 69.9133 51.0424 69.1198Z" fill="white"/>
</svg>
