<svg width="194" height="48" viewBox="0 0 194 48" fill="none" xmlns="http://www.w3.org/2000/svg">
    <path d="M4.828 9.529a3.688 3.688 0 0 0 3.687-3.69 3.688 3.688 0 1 0-7.373 0c0 2.038 1.65 3.69 3.686 3.69z" fill="#4386D1"/>
    <path fill-rule="evenodd" clip-rule="evenodd" d="M30.013 20.908c1.242.293 2.514.436 3.79.426a11.498 11.498 0 0 0 4.705-1.09 17.68 17.68 0 0 1-3.063 18.865 17.653 17.653 0 0 1-18.424 5.037V37.91H8.163a17.676 17.676 0 0 1 .385-21.934 17.643 17.643 0 0 1 21.423-4.65l.042 9.582zm-7.747 15.153a8.833 8.833 0 0 0 8.164-5.46 8.85 8.85 0 0 0-1.915-9.638 8.835 8.835 0 0 0-15.087 6.253c0 2.346.931 4.596 2.588 6.254a8.834 8.834 0 0 0 6.25 2.59z" fill="#4EBA85"/>
    <path d="M14.705 40.208H0v7.004h14.705v-7.005z" fill="#F6C050"/>
    <path d="M32.318 18.83a8.759 8.759 0 0 0 9.773-5.062 8.778 8.778 0 0 0 .736-3.866 8.944 8.944 0 0 0-5.35-8.366 8.926 8.926 0 0 0-3.404-.748 8.177 8.177 0 0 0-1.755.187V18.83z" fill="#EC7D79"/>
    <path d="M194 34.595a2.934 2.934 0 0 1-1.81 2.708 2.928 2.928 0 0 1-3.821-3.837 2.928 2.928 0 0 1 2.713-1.802 2.917 2.917 0 0 1 2.918 2.93zM62.549 17.105c-2.706 0-5.3 1.075-7.215 2.988a10.22 10.22 0 0 0-2.994 7.218v19.901h4.082V35.531a9.996 9.996 0 0 0 6.127 1.985c2.704 0 5.298-1.075 7.21-2.99a10.21 10.21 0 0 0 0-14.432 10.194 10.194 0 0 0-7.21-2.989zm4.278 14.55a6.114 6.114 0 0 1-8.62 0 6.103 6.103 0 0 1 0-8.626 6.096 6.096 0 0 1 9.99 6.645 6.1 6.1 0 0 1-1.37 1.98zM85.832 37.516c2.381.005 4.689-.826 6.521-2.349l-2.596-3.117a5.938 5.938 0 0 1-3.925 1.423 6.134 6.134 0 0 1-5.816-4.073h16.013V27.32a10.263 10.263 0 0 0-6.303-9.519 10.243 10.243 0 0 0-11.194 2.214 10.26 10.26 0 0 0 7.3 17.51v-.01zm0-16.327a6.227 6.227 0 0 1 5.763 4.085h-11.58a6.235 6.235 0 0 1 5.817-4.085zM128.503 37.516a10.205 10.205 0 0 0 10.002-12.196 10.2 10.2 0 0 0-13.905-7.438 10.205 10.205 0 0 0-3.308 16.645 10.193 10.193 0 0 0 7.211 2.989zm-4.341-14.487a6.097 6.097 0 0 1 6.696-1.414 6.098 6.098 0 0 1 3.292 8.06 6.085 6.085 0 0 1-1.369 1.98 6.115 6.115 0 0 1-8.619 0 6.102 6.102 0 0 1 0-8.626zM157.58 19.142a10.2 10.2 0 0 0-10.698-.976 10.212 10.212 0 0 0-5.648 9.144 10.223 10.223 0 0 0 3.101 7.013 10.204 10.204 0 0 0 14.205 0 10.223 10.223 0 0 0 3.101-7.013V7.41h-4.082l.021 11.733zm-1.807 12.512a6.115 6.115 0 0 1-8.619 0 6.102 6.102 0 0 1 0-8.625 6.085 6.085 0 0 1 4.333-1.868 6.093 6.093 0 0 1 5.699 3.792c.307.75.461 1.555.453 2.365a6.083 6.083 0 0 1-.497 2.356 6.082 6.082 0 0 1-1.369 1.98zM174.466 37.515c2.381.002 4.688-.83 6.522-2.348l-2.596-3.118a5.937 5.937 0 0 1-3.926 1.382 6.136 6.136 0 0 1-5.815-4.074h16.013V27.28a10.264 10.264 0 0 0-6.325-9.497 10.243 10.243 0 0 0-11.183 2.234 10.26 10.26 0 0 0 1.6 15.795 10.241 10.241 0 0 0 5.71 1.704zm0-16.326a6.228 6.228 0 0 1 5.764 4.084h-11.621a6.23 6.23 0 0 1 5.857-4.084zM113.102 32.028l2.627 3.118a10.211 10.211 0 0 1-15.225-2.287 10.232 10.232 0 0 1 4.319-14.789 10.211 10.211 0 0 1 10.906 1.487l-2.637 3.118a6.153 6.153 0 0 0-5.543-1.25 6.146 6.146 0 0 0-4.199 3.828 6.152 6.152 0 0 0 5.764 8.272 6.064 6.064 0 0 0 3.988-1.497z" fill="#1C2B32"/>
</svg>
